<svg xmlns="http://www.w3.org/2000/svg" viewBox="0 0 960 640" role="img" aria-labelledby="title desc">
  <title id="title">Domestic seasonal travel guide</title>
  <desc id="desc">Abstract map panels showing Korean domestic travel regions and seasons.</desc>
  <rect width="960" height="640" fill="#f7fbf6"/>
  <path d="M0 502c122-58 240-68 355-28 106 38 208 36 307-6 118-50 218-44 298 16v156H0z" fill="#12312b"/>
  <path d="M82 430c74-118 164-180 270-186 105-6 204 46 296 156 38-46 92-68 162-66 52 2 96 22 132 60v96H82z" fill="#dfeae2"/>
  <circle cx="778" cy="140" r="62" fill="#f4c95d"/>
  <g transform="translate(96 92)">
    <rect width="286" height="186" rx="18" fill="#ffffff" stroke="#d8ddd6"/>
    <text x="28" y="48" fill="#12312b" font-family="Arial" font-size="24" font-weight="700">REGION</text>
    <path d="M32 86h216M32 124h168M32 162h204" stroke="#1f7770" stroke-width="14" stroke-linecap="round"/>
  </g>
  <g transform="translate(496 310)">
    <rect width="304" height="164" rx="18" fill="#ffffff" stroke="#d8ddd6"/>
    <text x="28" y="48" fill="#12312b" font-family="Arial" font-size="24" font-weight="700">SEASON</text>
    <circle cx="62" cy="104" r="24" fill="#d96b4f"/>
    <circle cx="128" cy="104" r="24" fill="#f4c95d"/>
    <circle cx="194" cy="104" r="24" fill="#1f7770"/>
    <circle cx="260" cy="104" r="24" fill="#5f7fbd"/>
  </g>
  <path d="M186 512c92-82 210-82 354 0 96 54 180 54 252 0" fill="none" stroke="#f4c95d" stroke-width="16" stroke-linecap="round"/>
</svg>
